<svg width="100" height="100" viewBox="0 0 512 512" version="1.1" xmlns="http://www.w3.org/2000/svg" xmlns:xlink="http://www.w3.org/1999/xlink" xml:space="preserve" style="fill-rule:evenodd;clip-rule:evenodd;stroke-linejoin:round;stroke-miterlimit:1.41421;">
<style> g { fill: #fff; } </style>
<g><rect x="-5" y="-5" width="522" height="522" style="fill:transparent;fill-rule:nonzero;"/><clipPath id="_clip1"><path d="M320.857,239.405c-18.35,0 -27.726,14.442 -27.726,36.2c0,20.566 10.138,36.004 27.726,36.004c19.889,0 27.345,-18.202 27.345,-36.004c-0.014,-18.59 -9.385,-36.2 -27.351,-36.2l0.006,0Zm-48.757,-53.996l21.796,0l0,52.215l0.386,0c5.927,-9.887 18.355,-16.021 29.446,-16.021c31.162,0 46.273,24.534 46.273,54.404c0,27.485 -13.383,53.398 -42.643,53.398c-13.384,0 -27.725,-3.354 -34.228,-16.809l-0.378,0l0,14.051l-20.654,0l0,-141.235l0.002,-0.003Z"/></clipPath><g clip-path="url(#_clip1)"><rect x="267.098" y="180.409" width="107.903" height="153.996" style="fill-rule:nonzero;"/></g><clipPath id="_clip2"><path d="M450.389,258.598c-1.722,-12.462 -10.515,-19.192 -22.562,-19.192c-11.287,0 -27.153,6.135 -27.153,37.192c0,17.012 7.264,35.015 26.196,35.015c12.618,0 21.411,-8.714 23.519,-23.351l21.796,0c-4.016,26.506 -19.883,41.143 -45.315,41.143c-30.977,0 -47.994,-22.742 -47.994,-52.807c0,-30.856 16.253,-54.989 48.759,-54.989c22.944,0 42.454,11.867 44.55,36.991l-21.76,0l-0.036,-0.002Z"/></clipPath><g clip-path="url(#_clip2)"><rect x="373.876" y="216.609" width="103.309" height="117.796" style="fill-rule:nonzero;"/></g><clipPath id="_clip3"><path d="M195.895,326.339l-163.488,0l76.346,-140.93l163.489,0l-76.347,140.93Z"/></clipPath><g clip-path="url(#_clip3)"><rect x="27.407" y="180.409" width="249.835" height="150.93" style="fill-rule:nonzero;"/></g></g></svg>